<svg xmlns="http://www.w3.org/2000/svg" width="200" height="72" viewBox="0 0 200 72" fill="none">
<g opacity="0.3">
<rect width="200" height="72" fill="#17181D"/>
<g clip-path="url(#clip0_339_1571)">
<path fill-rule="evenodd" clip-rule="evenodd" d="M63.7461 17H11.9102C8.62974 17 5.97415 19.6816 6.00019 22.936V42.7227C6.00019 46.0031 8.65577 48.6587 11.9362 48.6587H36.4873L47.7086 54.9071L45.1571 48.6587H63.7461C67.0266 48.6587 69.6821 46.0031 69.6821 42.7227V22.936C69.6821 19.6556 67.0266 17 63.7461 17ZM10.8168 21.5822C10.0878 21.6343 9.54107 21.8946 9.17658 22.3893C8.8121 22.8579 8.68193 23.4567 8.76002 24.1336C10.2961 33.8969 11.728 40.4837 13.0558 43.8943C13.5765 45.1439 14.1753 45.7429 14.8783 45.6908C15.9718 45.6126 17.2735 44.1026 18.8096 41.1607C19.6167 39.4943 20.8664 36.995 22.5587 33.6625C23.9645 38.5831 25.8911 42.2802 28.3124 44.7535C28.9894 45.4564 29.6923 45.7688 30.3691 45.7168C30.9681 45.6647 31.4366 45.3522 31.749 44.7794C32.0094 44.2848 32.1135 43.712 32.0615 43.0611C31.9052 40.692 32.1397 37.3855 32.7905 33.1418C33.4673 28.7679 34.3005 25.6176 35.3159 23.7431C35.5242 23.3526 35.6022 22.962 35.5762 22.4934C35.5242 21.8946 35.2638 21.3999 34.7692 21.0094C34.2745 20.6189 33.7277 20.4366 33.1289 20.4887C32.3739 20.5408 31.8011 20.9053 31.4106 21.6343C29.7965 24.5762 28.6508 29.3407 27.974 35.9536C26.9846 33.4542 26.1514 30.5122 25.5006 27.0495C25.2143 25.5135 24.5113 24.7845 23.3657 24.8626C22.5847 24.9147 21.9338 25.4354 21.4131 26.4247L15.7114 37.2814C14.7741 33.5063 13.8889 28.8981 13.0819 23.4567C12.8996 22.1029 12.1446 21.478 10.8168 21.5822ZM60.9865 23.4568C62.8351 23.8473 64.215 24.8367 65.1521 26.4769C65.9853 27.8828 66.4017 29.5751 66.4017 31.6058C66.4017 34.2873 65.7249 36.7347 64.371 38.9737C62.8089 41.5773 60.7782 42.879 58.2529 42.879C57.8103 42.879 57.3416 42.8269 56.8468 42.7227C54.9985 42.3323 53.6186 41.343 52.6812 39.7027C51.8482 38.2708 51.4316 36.5525 51.4316 34.5477C51.4316 31.8661 52.1086 29.4188 53.4624 27.2059C55.0505 24.6023 57.0813 23.3006 59.5807 23.3006C60.0232 23.3006 60.4919 23.3527 60.9865 23.4568ZM59.8931 37.5417C60.8564 36.6826 61.5073 35.4069 61.8718 33.6886C61.9759 33.0898 62.054 32.4389 62.054 31.762C62.054 31.007 61.8977 30.1999 61.5853 29.3928C61.1948 28.3774 60.6741 27.8307 60.0492 27.7005C59.112 27.5183 58.2008 28.039 57.3416 29.3147C56.6387 30.304 56.196 31.3454 55.9618 32.4129C55.8315 33.0117 55.7794 33.6626 55.7794 34.3135C55.7794 35.0685 55.9356 35.8755 56.2481 36.6826C56.6387 37.698 57.1593 38.2447 57.7842 38.3749C58.435 38.505 59.138 38.2187 59.8931 37.5417ZM48.8281 26.4769C47.8907 24.8367 46.4849 23.8473 44.6625 23.4568C44.1677 23.3527 43.6992 23.3006 43.2564 23.3006C40.7572 23.3006 38.7265 24.6023 37.1383 27.2059C35.7844 29.4188 35.1076 31.8661 35.1076 34.5477C35.1076 36.5525 35.5242 38.2708 36.3572 39.7027C37.2945 41.343 38.6744 42.3323 40.5228 42.7227C41.0174 42.8269 41.4861 42.879 41.9288 42.879C44.4542 42.879 46.4849 41.5773 48.047 38.9737C49.4009 36.7347 50.0777 34.2873 50.0777 31.6058C50.0777 29.5751 49.6611 27.8828 48.8281 26.4769ZM45.5475 33.6886C45.1832 35.4069 44.5322 36.6826 43.5689 37.5417C42.8139 38.2187 42.111 38.505 41.4601 38.3749C40.8352 38.2447 40.3145 37.698 39.924 36.6826C39.6116 35.8755 39.4554 35.0685 39.4554 34.3135C39.4554 33.6626 39.5074 33.0117 39.6377 32.4129C39.8719 31.3454 40.3145 30.304 41.0174 29.3147C41.8767 28.039 42.7879 27.5183 43.7251 27.7005C44.35 27.8307 44.8707 28.3774 45.2612 29.3928C45.5737 30.1999 45.7299 31.007 45.7299 31.762C45.7299 32.4389 45.6778 33.0898 45.5475 33.6886Z" fill="white"/>
<path d="M76.2691 26.2425C74.5247 27.9609 73.6655 30.1478 73.6655 32.8034C73.6655 35.6412 74.5247 37.9583 76.2431 39.7027C77.9614 41.4471 80.2004 42.3322 82.9862 42.3322C83.7932 42.3322 84.7045 42.2021 85.6939 41.9156V37.6979C84.7827 37.9583 84.0015 38.0886 83.3246 38.0886C81.9447 38.0886 80.8513 37.6199 80.0181 36.7087C79.1851 35.7713 78.7685 34.5217 78.7685 32.9336C78.7685 31.4496 79.1851 30.2259 79.9921 29.2886C80.8252 28.3253 81.8405 27.8567 83.0903 27.8567C83.8974 27.8567 84.7565 27.9869 85.6939 28.2472V24.0295C84.8347 23.7952 83.8714 23.6911 82.8559 23.6911C80.2004 23.665 78.0135 24.5242 76.2691 26.2425ZM94.3375 23.665C91.9423 23.665 90.0678 24.4721 88.7138 26.0603C87.3601 27.6484 86.7092 29.8875 86.7092 32.7513C86.7092 35.8495 87.386 38.2187 88.7138 39.8589C90.0417 41.4992 91.9944 42.3322 94.5458 42.3322C97.0191 42.3322 98.9196 41.4992 100.247 39.8589C101.575 38.2187 102.252 35.9016 102.252 32.9336C102.252 29.9656 101.575 27.6745 100.221 26.0603C98.8416 24.4721 96.8889 23.665 94.3375 23.665ZM96.3942 37.2033C95.9256 37.9323 95.2226 38.2969 94.3375 38.2969C93.5044 38.2969 92.8795 37.9323 92.4369 37.2033C91.9944 36.4743 91.7861 35.0163 91.7861 32.8034C91.7861 29.3928 92.6452 27.7005 94.3896 27.7005C96.2121 27.7005 97.1492 29.4188 97.1492 32.8815C97.1233 35.0163 96.8629 36.4743 96.3942 37.2033ZM115.114 24.1597L114.176 28.1431C113.942 29.1585 113.708 30.1999 113.499 31.2673L112.979 34.0271C112.484 31.2673 111.807 27.9869 110.948 24.1597H104.908L102.643 41.8897H107.173L108.396 29.6792L111.495 41.8897H114.723L117.691 29.7052L118.967 41.8897H123.705L121.31 24.1597H115.114ZM136.801 24.1597L135.864 28.1431C135.629 29.1585 135.395 30.1999 135.187 31.2673L134.666 34.0271C134.171 31.2673 133.494 27.9869 132.635 24.1597H126.595L124.33 41.8897H128.86L130.084 29.6792L133.182 41.8897H136.41L139.352 29.7052L140.628 41.8897H145.366L142.971 24.1597H136.801ZM151.537 34.8862H155.78V31.2152H151.537V27.9608H156.431V24.1857H146.746V41.9156H156.457V38.1406H151.537V34.8862ZM169.943 32.0744C170.438 31.2673 170.698 30.4342 170.698 29.575C170.698 27.9088 170.048 26.581 168.746 25.6177C167.444 24.6544 165.648 24.1597 163.409 24.1597H157.837V41.8897H162.628V33.8188H162.706L166.585 41.8897H171.636L167.809 33.8968C168.72 33.4803 169.449 32.8815 169.943 32.0744ZM162.602 31.788V27.5703C163.747 27.5964 164.554 27.7786 165.049 28.1431C165.544 28.5076 165.778 29.0804 165.778 29.9135C165.778 31.1371 164.71 31.762 162.602 31.788ZM173.51 26.2425C171.766 27.9609 170.907 30.1478 170.907 32.8034C170.907 35.6412 171.766 37.9583 173.485 39.7027C175.203 41.4471 177.441 42.3322 180.228 42.3322C181.035 42.3322 181.946 42.2021 182.935 41.9156V37.6979C182.025 37.9583 181.243 38.0886 180.566 38.0886C179.186 38.0886 178.093 37.6199 177.26 36.7087C176.426 35.7713 176.01 34.5217 176.01 32.9336C176.01 31.4496 176.426 30.2259 177.233 29.2886C178.067 28.3253 179.081 27.8567 180.331 27.8567C181.138 27.8567 181.998 27.9869 182.935 28.2472V24.0295C182.076 23.7952 181.113 23.6911 180.098 23.6911C177.468 23.665 175.255 24.5242 173.51 26.2425ZM189.054 38.0886V34.8601H193.296V31.1892H189.054V27.9348H193.973V24.1597H184.289V41.8897H194V38.1145H189.054V38.0886Z" fill="white"/>
</g>
</g>
<defs>
<clipPath id="clip0_339_1571">
<rect width="188" height="38.2655" fill="white" transform="translate(6 17)"/>
</clipPath>
</defs>
</svg>